<svg width="31" height="31" viewBox="0 0 31 31" fill="none" xmlns="http://www.w3.org/2000/svg">
<g clip-path="url(#clip0_26_228)">
<path d="M10.221 20.2473C5.1591 20.4294 0.110759 16.3303 0.00191376 10.3646C-0.101366 4.69478 4.19742 0.102114 9.89883 0.00204374C15.8884 -0.102999 19.7964 4.56922 20.1489 9.31354C20.6443 15.9766 15.189 20.3517 10.2204 20.2473H10.221ZM17.8508 10.1116C17.852 5.63456 14.2255 2.3192 10.0714 2.33598C5.70704 2.35338 2.40023 5.78871 2.33035 10.0594C2.26541 14.0355 5.38978 17.8835 9.99717 17.9258C14.3751 17.9662 17.8242 14.5215 17.8501 10.1116H17.8508Z" fill="#1D1D1D" style="fill:#1D1D1D;fill:color(display-p3 0.1137 0.1137 0.1137);fill-opacity:1;"/>
<path d="M28.7866 30.9938C28.0179 31.0566 27.418 30.6314 26.8756 30.0963C25.3697 28.6095 23.8626 27.124 22.3684 25.6254C21.1989 24.4519 20.0486 23.2598 18.8909 22.0751C18.8501 22.0335 18.813 21.9887 18.7765 21.9434C18.5019 21.6052 18.5106 21.4592 18.8402 21.1614C19.027 20.9924 19.2199 20.8283 19.4185 20.6735C20.022 20.2049 20.5304 19.6492 20.9578 19.0152C21.0264 18.9133 21.1037 18.8169 21.186 18.7262C21.4135 18.4751 21.557 18.4515 21.8174 18.6622C22.1285 18.9139 22.4383 19.1718 22.7203 19.4559C25.2275 21.9831 27.7291 24.5166 30.2319 27.0476C30.6877 27.5081 30.9431 28.0713 30.9932 28.709C31.0538 29.4729 30.7211 30.0789 30.1348 30.5494C29.6512 30.9372 29.4718 30.9938 28.7872 30.9938H28.7866Z" fill="#1D1D1D" style="fill:#1D1D1D;fill:color(display-p3 0.1137 0.1137 0.1137);fill-opacity:1;"/>
<path d="M16.9496 20.7674C16.6509 20.7624 16.5105 20.6455 16.4209 20.4535C16.338 20.277 16.3813 20.1154 16.5087 19.9898C16.641 19.8593 16.7913 19.7443 16.9441 19.6374C17.9367 18.9468 18.7771 18.1059 19.4537 17.1002C19.5656 16.9336 19.6782 16.767 19.7963 16.6054C19.9318 16.4202 20.1643 16.3811 20.3857 16.4992C20.6009 16.6141 20.724 16.8534 20.609 17.0486C20.3146 17.549 20.019 18.0537 19.6708 18.5155C19.0245 19.372 18.2038 20.0439 17.3028 20.6157C17.1754 20.6965 17.0232 20.7363 16.9496 20.7674Z" fill="#1D1D1D" style="fill:#1D1D1D;fill:color(display-p3 0.1137 0.1137 0.1137);fill-opacity:1;"/>
<path d="M10.5463 4.86801C11.26 4.85248 12.333 5.17693 13.3231 5.78854C13.4536 5.86872 13.5797 5.96568 13.6836 6.07818C13.8791 6.28951 13.8853 6.4623 13.7356 6.67114C13.5804 6.88807 13.4097 6.93903 13.1444 6.81969C12.939 6.7277 12.7448 6.60961 12.5439 6.50767C11.0812 5.76554 9.58956 5.66982 8.06386 6.30318C7.88018 6.37963 7.69156 6.44987 7.4986 6.494C7.2871 6.5431 7.12012 6.42811 7.01189 6.20125C6.91727 6.00111 6.94139 5.83888 7.10528 5.69157C7.18629 5.61885 7.2772 5.5511 7.37492 5.50511C8.23641 5.10172 9.12882 4.82451 10.5469 4.86801H10.5463Z" fill="#1D1D1D" style="fill:#1D1D1D;fill:color(display-p3 0.1137 0.1137 0.1137);fill-opacity:1;"/>
</g>
<defs>
<clipPath id="clip0_26_228">
<rect width="31" height="31" fill="white" style="fill:white;fill-opacity:1;"/>
</clipPath>
</defs>
</svg>
